<svg xmlns="http://www.w3.org/2000/svg" viewBox="0 0 240 240"><defs><linearGradient id="bg" x2="1" y2="1"><stop stop-color="#e6f6ff"/><stop offset="1" stop-color="#b6d9ed"/></linearGradient><linearGradient id="metal" x2="1" y2="1"><stop stop-color="#fff"/><stop offset="1" stop-color="#aebdc8"/></linearGradient></defs><rect width="240" height="240" rx="48" fill="url(#bg)"/><ellipse cx="120" cy="217" rx="66" ry="9" fill="#668ca3" opacity=".2"/><rect x="70" y="148" width="100" height="66" rx="27" fill="#23394c"/><rect x="84" y="155" width="72" height="55" rx="20" fill="url(#metal)"/><rect x="106" y="169" width="28" height="23" rx="6" fill="#f7b334"/><path d="M115 176l-5 9h9l-3 7 13-12h-9l3-4z" fill="#263c4c"/><rect x="39" y="101" width="31" height="45" rx="14" fill="#23394c"/><rect x="170" y="101" width="31" height="45" rx="14" fill="#23394c"/><circle cx="54" cy="122" r="10" fill="#21bafa"/><circle cx="186" cy="122" r="10" fill="#21bafa"/><rect x="60" y="65" width="120" height="101" rx="43" fill="url(#metal)" stroke="#637e90" stroke-width="3"/><rect x="72" y="81" width="96" height="70" rx="29" fill="#112b40"/><path d="M90 113q12-18 24 0M126 113q12-18 24 0" stroke="#39d8ff" stroke-width="7" fill="none" stroke-linecap="round"/><path d="M109 131q11 9 22 0" stroke="#39d8ff" stroke-width="5" fill="none" stroke-linecap="round"/><path d="M67 73c0-37 20-55 53-55s53 18 53 55z" fill="#f9b12c" stroke="#b87615" stroke-width="4"/><path d="M113 23v45" stroke="#d88b1c" stroke-width="6"/><rect x="56" y="65" width="128" height="17" rx="8" fill="#ffca4b" stroke="#b87615" stroke-width="3"/><path d="M115 40l-13 19h10l-4 11 21-25h-12l4-5z" fill="#23394c"/><circle cx="82" cy="163" r="7" fill="#f7b334"/><circle cx="158" cy="163" r="7" fill="#f7b334"/></svg>